<?xml version="1.0" encoding="UTF-8" standalone="no"?>
<svg width="472px" height="131px" viewBox="0 0 472 131" version="1.1" xmlns="http://www.w3.org/2000/svg" xmlns:xlink="http://www.w3.org/1999/xlink" xmlns:sketch="http://www.bohemiancoding.com/sketch/ns">
    <!-- Generator: Sketch 3.3.3 (12081) - http://www.bohemiancoding.com/sketch -->
    <title>Artboard 1</title>
    <desc>Created with Sketch.</desc>
    <defs></defs>
    <g id="Page-1" stroke="none" stroke-width="1" fill="none" fill-rule="evenodd" sketch:type="MSPage">
        <g id="Artboard-1" sketch:type="MSArtboardGroup">
            <g id="~-+-~-copy-+-~-copy-2" sketch:type="MSLayerGroup" transform="translate(-1.000000, 0.000000)" fill="#60A862">
                <path d="M134.055,30.3515 C124.13695,35.9195278 117.046521,39.4864922 112.7835,41.0525 C108.520479,42.6185078 104.301021,43.4015 100.125,43.4015 C91.4249565,43.4015 79.8540722,40.0955331 65.412,33.4835 C55.6679513,29.1334782 49.0125178,26.3060065 45.4455,25.001 C41.8784822,23.6959935 38.4420165,23.0435 35.136,23.0435 C31.8299835,23.0435 27.8715231,24.0004904 23.2605,25.9145 C18.6494769,27.8285096 11.2110513,31.8304695 0.945,37.9205 L0.945,13.1255 C10.5150478,7.73147303 17.5619774,4.20800826 22.086,2.555 C26.6100226,0.901991735 30.9599791,0.0755 35.136,0.0755 C43.6620426,0.0755 55.319926,3.64246433 70.11,10.7765 C84.7260731,17.7365348 94.730973,21.2165 100.125,21.2165 C106.389031,21.2165 117.698918,15.9095531 134.055,5.2955 L134.055,30.3515 Z" id="~" sketch:type="MSShapeGroup"></path>
                <path d="M134.055,73.6775 C124.13695,79.2455278 117.046521,82.8124922 112.7835,84.3785 C108.520479,85.9445078 104.301021,86.7275 100.125,86.7275 C91.4249565,86.7275 79.8540722,83.4215331 65.412,76.8095 C55.6679513,72.4594782 49.0125178,69.6320065 45.4455,68.327 C41.8784822,67.0219935 38.4420165,66.3695 35.136,66.3695 C31.8299835,66.3695 27.8715231,67.3264904 23.2605,69.2405 C18.6494769,71.1545096 11.2110513,75.1564695 0.945,81.2465 L0.945,56.4515 C10.5150478,51.057473 17.5619774,47.5340083 22.086,45.881 C26.6100226,44.2279917 30.9599791,43.4015 35.136,43.4015 C43.6620426,43.4015 55.319926,46.9684643 70.11,54.1025 C84.7260731,61.0625348 94.730973,64.5425 100.125,64.5425 C106.389031,64.5425 117.698918,59.2355531 134.055,48.6215 L134.055,73.6775 Z" id="~-copy" opacity="0.66" sketch:type="MSShapeGroup"></path>
                <path d="M134.055,117.0035 C124.13695,122.571528 117.046521,126.138492 112.7835,127.7045 C108.520479,129.270508 104.301021,130.0535 100.125,130.0535 C91.4249565,130.0535 79.8540722,126.747533 65.412,120.1355 C55.6679513,115.785478 49.0125178,112.958007 45.4455,111.653 C41.8784822,110.347993 38.4420165,109.6955 35.136,109.6955 C31.8299835,109.6955 27.8715231,110.65249 23.2605,112.5665 C18.6494769,114.48051 11.2110513,118.48247 0.945,124.5725 L0.945,99.7775 C10.5150478,94.383473 17.5619774,90.8600083 22.086,89.207 C26.6100226,87.5539917 30.9599791,86.7275 35.136,86.7275 C43.6620426,86.7275 55.319926,90.2944643 70.11,97.4285 C84.7260731,104.388535 94.730973,107.8685 100.125,107.8685 C106.389031,107.8685 117.698918,102.561553 134.055,91.9475 L134.055,117.0035 Z" id="~-copy-2" opacity="0.33" sketch:type="MSShapeGroup"></path>
            </g>
            <text id="equivalent" sketch:type="MSTextLayer" font-family="American Typewriter" font-size="64" font-weight="normal">
                <tspan x="145" y="48" fill="#494949">equiv</tspan>
                <tspan x="312.104" y="48" fill="#C5C5C5">alent</tspan>
                <tspan x="145" y="122" fill="#C5C5C5">installer</tspan>
            </text>
        </g>
    </g>
</svg>